<svg xmlns="http://www.w3.org/2000/svg" viewBox="0 0 40 40" fill="none">
  <rect width="40" height="40" rx="10" fill="#0B4B4A"/>
  <g transform="translate(8, 4) scale(0.6)">
    <path d="M20.5 5C20.5 3.5 21.5 2 23.5 2C25.5 2 26.5 3.5 26.5 5V28H20.5V5Z" fill="url(#g1)"/>
    <path d="M14 12C12.5 12 11 13 11 15C11 17 12.5 18 14 18H20.5V12H14Z" fill="url(#g1)"/>
    <path d="M33 9C34.5 9 36 10 36 12C36 14 34.5 15 33 15H26.5V9H33Z" fill="url(#g1)"/>
    <path d="M14 22C12.5 22 11 23 11 25C11 27 12.5 28 14 28H20.5V22H14Z" fill="url(#g2)"/>
    <path d="M33 22C34.5 22 36 23 36 25C36 27 34.5 28 33 28H26.5V22H33Z" fill="url(#g2)"/>
    <path d="M20.5 28H26.5V38C26.5 39.5 25.5 41 23.5 41C21.5 41 20.5 39.5 20.5 38V28Z" fill="url(#g2)"/>
    <rect x="8" y="42" width="31" height="4" rx="2" fill="#0B4B4A"/>
  </g>
  <defs>
    <linearGradient id="g1" x1="23" y1="2" x2="23" y2="28" gradientUnits="userSpaceOnUse">
      <stop stop-color="#4ADE80"/>
      <stop offset="1" stop-color="#16A34A"/>
    </linearGradient>
    <linearGradient id="g2" x1="23" y1="22" x2="23" y2="45" gradientUnits="userSpaceOnUse">
      <stop stop-color="#16A34A"/>
      <stop offset="1" stop-color="#0B4B4A"/>
    </linearGradient>
  </defs>
</svg>
